:SAMPLES-PER-SECOND 30
:FULLY-SPECIFIED
:DEGREES
342
root  -68.8478 41.4626 -0.680971 144.975 86.3504 143.079
RightUpLeg  1.54821 -9.27628 -4.14507
RightLeg  6.78893 -16.4844 3.64218
RightFoot  -7.58955 0.0245965 -2.31997
RightToes  0.000482159 0.542163 -0.142577
Spine  8.17149 -0.306245 -0.260609
Spine1  -0.0327382 -1.04772 4.68502
HEad  -0.866944 1.87249 1.14177
LeftShoulder1  5.16144 -8.86288 -35.6402
LeftArm  -10.6642 22.9605 -23.1281
LeftForeArm  39.1582 -17.0317 -3.19006
LeftHand  -0.25398 0.0180481 5.50724
RightShoulder  3.35772 5.85334 29.9114
RightArm  -19.6243 -16.9079 28.8869
RightForeArm  8.11469 14.0285 3.91446
RightHand  -1.99603 6.76659 -19.2952
LeftUpLeg  -0.905821 3.56713 1.38774
LeftLeg  5.11604 6.68888 -1.86456
LeftFoot  -4.47572 0.0699057 -0.719695
LeftToes  1.06246e-005 4.65855e-005 -8.18503e-006
343
root  -68.8918 41.5103 -0.668375 145.704 85.6954 143.888
RightUpLeg  1.77 -9.36144 -4.47602
RightLeg  6.49763 -16.8546 3.6472
RightFoot  -7.36795 0.0269228 -2.21376
RightToes  0.000482159 0.542163 -0.142577
Spine  7.73258 -0.507979 -1.27847
Spine1  -0.647668 -1.26486 4.63035
HEad  0.498466 1.35984 1.62412
LeftShoulder1  4.68644 -8.51877 -32.9277
LeftArm  -11.6385 22.3702 -21.7034
LeftForeArm  38.2841 -13.233 -3.51755
LeftHand  -0.25398 0.0180481 5.50724
RightShoulder  2.98497 5.20818 28.2499
RightArm  -22.4618 -17.1615 26.9991
RightForeArm  7.24127 12.9931 3.36769
RightHand  -2.03776 7.07869 -19.2158
LeftUpLeg  -0.242157 3.37393 1.35501
LeftLeg  3.75636 6.09189 -2.62944
LeftFoot  -3.60177 0.0638873 -0.642344
LeftToes  1.06246e-005 4.65855e-005 -8.18503e-006
344
root  -68.916 41.536 -0.711081 148.27 85.3308 146.872
RightUpLeg  2.58318 -9.32982 -4.62735
RightLeg  5.83056 -17.235 3.80998
RightFoot  -7.27426 0.0154075 -1.82065
RightToes  0.000482159 0.542163 -0.142577
Spine  7.70751 -0.590076 -0.859442
Spine1  -1.26143 -1.08261 3.32187
HEad  1.52686 0.441531 1.74448
LeftShoulder1  4.27412 -8.32462 -30.0631
LeftArm  -12.3673 21.5556 -19.7616
LeftForeArm  36.6399 -10.2676 -3.47768
LeftHand  -0.25398 0.0180481 5.50724
RightShoulder  2.56371 4.41403 26.3021
RightArm  -23.9021 -17.591 24.5143
RightForeArm  4.61584 11.964 3.00291
RightHand  -2.10625 6.95848 -20.0209
LeftUpLeg  0.667361 3.09639 1.32863
LeftLeg  2.64312 6.1056 -2.89132
LeftFoot  -3.1935 0.0425377 -0.338081
LeftToes  1.06246e-005 4.65855e-005 -8.18503e-006
345
root  -68.9368 41.5524 -0.775562 148.342 85.4532 147.369
RightUpLeg  3.29432 -9.1405 -4.60339
RightLeg  5.21988 -17.3549 3.842
RightFoot  -7.17725 0.00594878 -1.50249
RightToes  0.000482159 0.542163 -0.142577
Spine  7.54896 -0.468818 -0.125118
Spine1  -1.46762 -0.698961 1.99369
HEad  2.14491 -0.415281 1.54091
LeftShoulder1  3.76096 -7.81656 -27.0693
LeftArm  -13.1064 20.6152 -17.9733
LeftForeArm  34.9461 -8.67717 -3.098
LeftHand  -0.25398 0.0180481 5.50724
RightShoulder  2.17515 3.69549 24.0404
RightArm  -24.4839 -17.5964 21.5137
RightForeArm  2.90065 10.7957 2.64995
RightHand  -2.10812 6.78504 -20.3065
LeftUpLeg  1.36441 3.09743 1.33985
LeftLeg  2.05316 6.25855 -2.94546
LeftFoot  -2.91475 0.025627 -0.109098
LeftToes  1.06246e-005 4.65855e-005 -8.18503e-006
346
root  -68.9565 41.5648 -0.834775 144.236 85.907 143.246
RightUpLeg  3.19261 -8.94855 -4.55762
RightLeg  5.12112 -17.0266 3.64338
RightFoot  -7.01761 0.0107745 -1.5225
RightToes  0.000482159 0.542163 -0.142577
Spine  6.80293 -0.224651 0.136298
Spine1  -1.29858 -0.331725 1.36942
HEad  2.46991 -0.814339 1.20377
LeftShoulder1  3.11786 -6.79517 -23.9936
LeftArm  -14.1978 19.7931 -16.5107
LeftForeArm  33.1441 -8.39403 -2.66219
LeftHand  -0.25398 0.0180481 5.50724
RightShoulder  1.83635 3.08528 21.5552
RightArm  -25.0658 -16.9864 18.445
RightForeArm  2.13461 9.62628 2.22899
RightHand  -2.06825 6.77675 -19.9518
LeftUpLeg  1.48467 3.20496 1.31167
LeftLeg  1.86746 6.54664 -3.08866
LeftFoot  -2.73026 0.0150065 0.0194747
LeftToes  1.06246e-005 4.65855e-005 -8.18503e-006
347
root  -68.9724 41.5744 -0.891133 138.204 86.3458 136.776
RightUpLeg  2.48893 -8.88637 -4.59225
RightLeg  5.32947 -16.4655 3.47513
RightFoot  -6.84502 0.0237494 -1.67231
RightToes  0.000482159 0.542163 -0.142577
Spine  5.76604 0.0373161 0.0228937
Spine1  -1.30526 -0.0391987 1.22476
HEad  2.82524 -0.755052 0.821275
LeftShoulder1  2.52555 -5.67824 -21.0719
LeftArm  -15.3187 19.162 -14.9522
LeftForeArm  30.8437 -8.8405 -2.33599
LeftHand  -0.25398 0.0180481 5.50724
RightShoulder  1.50519 2.39107 19.0447
RightArm  -25.7616 -16.1178 15.5411
RightForeArm  0.314804 8.80753 1.93578
RightHand  -2.07603 6.84822 -19.9121
LeftUpLeg  1.222 3.16485 1.157
LeftLeg  1.56431 7.16493 -3.23556
LeftFoot  -2.59351 0.00112995 0.193602
LeftToes  1.06246e-005 4.65855e-005 -8.18503e-006
348
root  -68.9825 41.5849 -0.947709 136.37 86.5291 134.721
RightUpLeg  2.24086 -8.9171 -4.65593
RightLeg  5.25473 -16.1925 3.56933
RightFoot  -6.69214 0.0245883 -1.64234
RightToes  0.000482159 0.542163 -0.142577
Spine  5.23355 0.161492 -0.10532
Spine1  -1.74995 0.0966447 1.14779
HEad  3.40423 -0.426455 0.403296
LeftShoulder1  2.08863 -4.86635 -18.3293
LeftArm  -16.3155 18.6074 -13.1753
LeftForeArm  28.7631 -9.53934 -2.0784
LeftHand  -0.25398 0.0180481 5.50724
RightShoulder  1.17795 1.54668 16.6502
RightArm  -26.0101 -15.2458 12.8225
RightForeArm  -2.96998 8.49101 1.97406
RightHand  -2.1465 6.9068 -20.4672
LeftUpLeg  1.15421 3.033 1.0204
LeftLeg  1.17267 7.64899 -3.20462
LeftFoot  -2.44303 -0.0101687 0.338892
LeftToes  1.06246e-005 4.65855e-005 -8.18503e-006
349
root  -68.99 41.5952 -0.991818 139.642 86.4871 138.323
RightUpLeg  2.80018 -8.94676 -4.69351
RightLeg  4.89491 -16.3153 3.76753
RightFoot  -6.58137 0.0166882 -1.48982
RightToes  0.000482159 0.542163 -0.142577
Spine  5.3415 0.0772213 -0.260154
Spine1  -2.18535 0.0121206 1.10212
HEad  3.97277 0.0151648 0.0908493
LeftShoulder1  1.71752 -4.19012 -15.4562
LeftArm  -17.4485 18.0155 -11.7223
LeftForeArm  27.668 -10.3665 -1.79423
LeftHand  -0.25398 0.0180481 5.50724
RightShoulder  0.904501 0.754383 14.3809
RightArm  -25.6042 -14.2589 10.4135
RightForeArm  -5.70647 8.49848 2.25272
RightHand  -2.20657 6.97036 -20.9149
LeftUpLeg  1.50721 3.05081 1.0714
LeftLeg  1.07646 7.48868 -3.12857
LeftFoot  -2.34709 -0.0126216 0.350861
LeftToes  1.06246e-005 4.65855e-005 -8.18503e-006
350
root  -68.9967 41.5994 -1.02381 142.717 86.4019 141.935
RightUpLeg  3.51752 -8.94396 -4.70751
RightLeg  4.66215 -16.4733 3.83904
RightFoot  -6.50735 0.0172836 -1.4856
RightToes  0.000482159 0.542163 -0.142577
Spine  5.5186 -0.108183 -0.520961
Spine1  -2.19556 -0.191976 1.15979
HEad  4.20687 0.432125 0.0202567
LeftShoulder1  1.34716 -3.37798 -12.4358
LeftArm  -18.9166 17.3956 -10.9261
LeftForeArm  27.2418 -11.3208 -1.47478
LeftHand  -0.25398 0.0180481 5.50724
RightShoulder  0.712634 0.19836 12.1857
RightArm  -24.9411 -13.1234 8.43584
RightForeArm  -6.29567 8.62046 2.52797
RightHand  -2.19805 6.99003 -20.8053
LeftUpLeg  2.00585 3.27767 1.26031
LeftLeg  1.23149 6.95684 -3.21106
LeftFoot  -2.3739 -0.0150215 0.364657
LeftToes  1.06246e-005 4.65855e-005 -8.18503e-006
351
root  -69.003 41.5988 -1.06524 143.217 86.4737 142.744
RightUpLeg  3.82812 -8.92915 -4.71075
RightLeg  4.66698 -16.4018 3.80729
RightFoot  -6.42487 0.0292686 -1.66894
RightToes  0.000482159 0.542163 -0.142577
Spine  5.37813 -0.226636 -0.725646
Spine1  -1.96452 -0.328115 1.22824
HEad  4.16154 0.702216 0.0686693
LeftShoulder1  1.05638 -2.63981 -9.81469
LeftArm  -20.8171 16.9173 -10.3404
LeftForeArm  27.1656 -12.5178 -1.1425
LeftHand  -0.25398 0.0180481 5.50724
RightShoulder  0.571373 -0.206746 10.0466
RightArm  -24.3979 -12.0033 6.87212
RightForeArm  -5.44343 8.82608 2.71085
RightHand  -2.17153 6.99947 -20.5503
LeftUpLeg  2.32421 3.49516 1.39696
LeftLeg  1.30265 6.72161 -3.35422
LeftFoot  -2.43202 -0.0258642 0.510822
LeftToes  1.06246e-005 4.65855e-005 -8.18503e-006
352
root  -69.0115 41.6 -1.12068 142.249 86.6759 141.809
RightUpLeg  3.78417 -8.91265 -4.71291
RightLeg  4.72483 -16.1901 3.7886
RightFoot  -6.31867 0.0396152 -1.82972
RightToes  0.000482159 0.542163 -0.142577
Spine  5.05458 -0.243079 -0.891215
Spine1  -1.89757 -0.370501 1.34565
HEad  4.17104 0.830353 0.00155113
LeftShoulder1  0.910118 -2.30698 -8.10205
LeftArm  -23.4368 16.8471 -9.36053
LeftForeArm  27.8415 -14.2773 -0.887061
LeftHand  -0.25398 0.0180481 5.50724
RightShoulder  0.445918 -0.639803 8.07551
RightArm  -24.0115 -10.9436 5.6711
RightForeArm  -4.78273 9.19816 2.90142
RightHand  -2.19873 7.08888 -20.655
LeftUpLeg  2.38325 3.52637 1.38263
LeftLeg  1.24967 6.93316 -3.36442
LeftFoot  -2.42089 -0.0373922 0.667895
LeftToes  1.06246e-005 4.65855e-005 -8.18503e-006
353
root  -69.0227 41.6037 -1.17065 140.424 86.8644 139.923
RightUpLeg  3.62977 -8.8916 -4.73432
RightLeg  4.79749 -15.9901 3.75036
RightFoot  -6.24467 0.0402876 -1.83536
RightToes  0.000482159 0.542163 -0.142577
Spine  4.77899 -0.242671 -1.25675
Spine1  -2.01471 -0.429759 1.65781
HEad  4.34262 0.927453 -0.166437
LeftShoulder1  0.849039 -2.21646 -7.17668
LeftArm  -27.0112 17.1606 -8.0885
LeftForeArm  29.1401 -16.5402 -0.951615
LeftHand  -0.25398 0.0180481 5.50724
RightShoulder  0.334817 -1.13268 6.45333
RightArm  -23.7234 -9.88945 4.88418
RightForeArm  -4.89189 9.81664 3.17838
RightHand  -2.28774 7.30359 -21.1111
LeftUpLeg  2.3136 3.43712 1.2787
LeftLeg  1.23945 7.2627 -3.28968
LeftFoot  -2.37638 -0.0409338 0.701075
LeftToes  1.06246e-005 4.65855e-005 -8.18503e-006
354
root  -69.0341 41.6062 -1.20888 137.326 87.0246 136.768
RightUpLeg  3.44882 -8.85654 -4.77185
RightLeg  4.93574 -15.7896 3.63537
RightFoot  -6.22502 0.035959 -1.75023
RightToes  0.000482159 0.542163 -0.142577
Spine  4.57107 -0.248846 -1.72868
Spine1  -2.08245 -0.496274 2.00205
HEad  4.47245 1.00716 -0.190934
LeftShoulder1  0.797386 -2.06337 -6.59299
LeftArm  -30.6529 17.3814 -7.10304
LeftForeArm  29.4188 -18.2918 -1.29494
LeftHand  -0.25398 0.0180481 5.50724
RightShoulder  0.252408 -1.57554 5.2981
RightArm  -23.5211 -9.02452 4.48909
RightForeArm  -5.19896 10.6543 3.47558
RightHand  -2.41183 7.66481 -21.6246
LeftUpLeg  2.25544 3.38138 1.18275
LeftLeg  1.25414 7.53016 -3.28862
LeftFoot  -2.34896 -0.0434048 0.709875
LeftToes  1.06246e-005 4.65855e-005 -8.18503e-006
355
root  -69.0415 41.6078 -1.25032 133.819 87.2159 133.223
RightUpLeg  3.31997 -8.79945 -4.78412
RightLeg  5.00908 -15.5751 3.53084
RightFoot  -6.19027 0.0327953 -1.66369
RightToes  0.000482159 0.542163 -0.142577
Spine  4.36416 -0.219579 -1.92053
Spine1  -2.02497 -0.474381 2.05695
HEad  4.42564 0.991923 0.0164677
LeftShoulder1  0.769066 -2.00536 -6.18823
LeftArm  -32.4786 17.1434 -6.5981
LeftForeArm  27.2869 -18.3566 -1.26121
LeftHand  -0.25398 0.0180481 5.50724
RightShoulder  0.207923 -1.84012 4.62886
RightArm  -23.3779 -8.61104 4.28369
RightForeArm  -5.13196 11.4889 3.67927
RightHand  -2.52014 8.05137 -21.9387
LeftUpLeg  2.25653 3.39763 1.13929
LeftLeg  1.19797 7.76008 -3.34954
LeftFoot  -2.31177 -0.0534693 0.833686
LeftToes  1.06246e-005 4.65855e-005 -8.18503e-006
356
root  -69.0421 41.6116 -1.29737 132.062 87.3966 131.482
RightUpLeg  3.37202 -8.74442 -4.76662
RightLeg  4.88064 -15.4309 3.53801
RightFoot  -6.09894 0.0306071 -1.58637
RightToes  0.000482159 0.542163 -0.142577
Spine  4.17535 -0.202901 -1.85764
Spine1  -1.93263 -0.437922 1.93505
HEad  4.29122 0.949598 0.26735
LeftShoulder1  0.802018 -2.28872 -6.06401
LeftArm  -31.623 16.695 -6.28228
LeftForeArm  23.9845 -16.7436 -0.583274
LeftHand  -0.25398 0.0180481 5.50724
RightShoulder  0.201612 -1.86886 4.43224
RightArm  -23.2086 -8.47763 4.11109
RightForeArm  -4.74301 11.9895 3.77197
RightHand  -2.55469 8.20249 -21.9914
LeftUpLeg  2.32163 3.4323 1.14053
LeftLeg  1.11849 7.8936 -3.3677
LeftFoot  -2.25126 -0.0669712 1.01005
LeftToes  1.06246e-005 4.65855e-005 -8.18503e-006
